<svg xmlns='http://www.w3.org/2000/svg' viewBox='0 0 524 68' fill='currentColor' aria-hidden='true' preserveAspectRatio='xMidYMid meet'>
  <rect x="50" y="10" width="3" height="7" rx="1" ry="1" />
  <rect x="58" y="10" width="3" height="7" rx="1" ry="1" />
  <rect x="66" y="10" width="3" height="7" rx="1" ry="1" />
  <rect x="74" y="10" width="3" height="7" rx="1" ry="1" />
  <rect x="82" y="10" width="3" height="7" rx="1" ry="1" />
  <rect x="90" y="10" width="3" height="7" rx="1" ry="1" />
  <rect x="122" y="10" width="3" height="7" rx="1" ry="1" />
  <rect x="130" y="10" width="3" height="7" rx="1" ry="1" />
  <rect x="138" y="10" width="3" height="7" rx="1" ry="1" />
  <rect x="186" y="10" width="3" height="7" rx="1" ry="1" />
  <rect x="194" y="10" width="3" height="7" rx="1" ry="1" />
  <rect x="202" y="10" width="3" height="7" rx="1" ry="1" />
  <rect x="210" y="10" width="3" height="7" rx="1" ry="1" />
  <rect x="218" y="10" width="3" height="7" rx="1" ry="1" />
  <rect x="226" y="10" width="3" height="7" rx="1" ry="1" />
  <rect x="234" y="10" width="3" height="7" rx="1" ry="1" />
  <rect x="242" y="10" width="3" height="7" rx="1" ry="1" />
  <rect x="250" y="10" width="3" height="7" rx="1" ry="1" />
  <rect x="258" y="10" width="3" height="7" rx="1" ry="1" />
  <rect x="290" y="10" width="3" height="7" rx="1" ry="1" />
  <rect x="298" y="10" width="3" height="7" rx="1" ry="1" />
  <rect x="306" y="10" width="3" height="7" rx="1" ry="1" />
  <rect x="338" y="10" width="3" height="7" rx="1" ry="1" />
  <rect x="346" y="10" width="3" height="7" rx="1" ry="1" />
  <rect x="354" y="10" width="3" height="7" rx="1" ry="1" />
  <rect x="378" y="10" width="3" height="7" rx="1" ry="1" />
  <rect x="386" y="10" width="3" height="7" rx="1" ry="1" />
  <rect x="394" y="10" width="3" height="7" rx="1" ry="1" />
  <rect x="402" y="10" width="3" height="7" rx="1" ry="1" />
  <rect x="410" y="10" width="3" height="7" rx="1" ry="1" />
  <rect x="418" y="10" width="3" height="7" rx="1" ry="1" />
  <rect x="426" y="10" width="3" height="7" rx="1" ry="1" />
  <rect x="434" y="10" width="3" height="7" rx="1" ry="1" />
  <rect x="442" y="10" width="3" height="7" rx="1" ry="1" />
  <rect x="450" y="10" width="3" height="7" rx="1" ry="1" />
  <rect x="482" y="10" width="3" height="7" rx="1" ry="1" />
  <rect x="490" y="10" width="3" height="7" rx="1" ry="1" />
  <rect x="498" y="10" width="3" height="7" rx="1" ry="1" />
  <rect x="506" y="10" width="3" height="7" rx="1" ry="1" />
  <rect x="50" y="18" width="3" height="7" rx="1" ry="1" />
  <rect x="58" y="18" width="3" height="7" rx="1" ry="1" />
  <rect x="66" y="18" width="3" height="7" rx="1" ry="1" />
  <rect x="74" y="18" width="3" height="7" rx="1" ry="1" />
  <rect x="82" y="18" width="3" height="7" rx="1" ry="1" />
  <rect x="90" y="18" width="3" height="7" rx="1" ry="1" />
  <rect x="122" y="18" width="3" height="7" rx="1" ry="1" />
  <rect x="130" y="18" width="3" height="7" rx="1" ry="1" />
  <rect x="138" y="18" width="3" height="7" rx="1" ry="1" />
  <rect x="186" y="18" width="3" height="7" rx="1" ry="1" />
  <rect x="194" y="18" width="3" height="7" rx="1" ry="1" />
  <rect x="202" y="18" width="3" height="7" rx="1" ry="1" />
  <rect x="210" y="18" width="3" height="7" rx="1" ry="1" />
  <rect x="218" y="18" width="3" height="7" rx="1" ry="1" />
  <rect x="226" y="18" width="3" height="7" rx="1" ry="1" />
  <rect x="234" y="18" width="3" height="7" rx="1" ry="1" />
  <rect x="242" y="18" width="3" height="7" rx="1" ry="1" />
  <rect x="250" y="18" width="3" height="7" rx="1" ry="1" />
  <rect x="258" y="18" width="3" height="7" rx="1" ry="1" />
  <rect x="266" y="18" width="3" height="7" rx="1" ry="1" />
  <rect x="290" y="18" width="3" height="7" rx="1" ry="1" />
  <rect x="298" y="18" width="3" height="7" rx="1" ry="1" />
  <rect x="306" y="18" width="3" height="7" rx="1" ry="1" />
  <rect x="338" y="18" width="3" height="7" rx="1" ry="1" />
  <rect x="346" y="18" width="3" height="7" rx="1" ry="1" />
  <rect x="354" y="18" width="3" height="7" rx="1" ry="1" />
  <rect x="370" y="18" width="3" height="7" rx="1" ry="1" />
  <rect x="378" y="18" width="3" height="7" rx="1" ry="1" />
  <rect x="386" y="18" width="3" height="7" rx="1" ry="1" />
  <rect x="394" y="18" width="3" height="7" rx="1" ry="1" />
  <rect x="402" y="18" width="3" height="7" rx="1" ry="1" />
  <rect x="410" y="18" width="3" height="7" rx="1" ry="1" />
  <rect x="418" y="18" width="3" height="7" rx="1" ry="1" />
  <rect x="426" y="18" width="3" height="7" rx="1" ry="1" />
  <rect x="434" y="18" width="3" height="7" rx="1" ry="1" />
  <rect x="442" y="18" width="3" height="7" rx="1" ry="1" />
  <rect x="450" y="18" width="3" height="7" rx="1" ry="1" />
  <rect x="458" y="18" width="3" height="7" rx="1" ry="1" />
  <rect x="474" y="18" width="3" height="7" rx="1" ry="1" />
  <rect x="482" y="18" width="3" height="7" rx="1" ry="1" />
  <rect x="490" y="18" width="3" height="7" rx="1" ry="1" />
  <rect x="498" y="18" width="3" height="7" rx="1" ry="1" />
  <rect x="506" y="18" width="3" height="7" rx="1" ry="1" />
  <rect x="50" y="26" width="3" height="7" rx="1" ry="1" />
  <rect x="58" y="26" width="3" height="7" rx="1" ry="1" />
  <rect x="66" y="26" width="3" height="7" rx="1" ry="1" />
  <rect x="74" y="26" width="3" height="7" rx="1" ry="1" />
  <rect x="82" y="26" width="3" height="7" rx="1" ry="1" />
  <rect x="90" y="26" width="3" height="7" rx="1" ry="1" />
  <rect x="122" y="26" width="3" height="7" rx="1" ry="1" />
  <rect x="130" y="26" width="3" height="7" rx="1" ry="1" />
  <rect x="138" y="26" width="3" height="7" rx="1" ry="1" />
  <rect x="186" y="26" width="3" height="7" rx="1" ry="1" />
  <rect x="194" y="26" width="3" height="7" rx="1" ry="1" />
  <rect x="202" y="26" width="3" height="7" rx="1" ry="1" />
  <rect x="210" y="26" width="3" height="7" rx="1" ry="1" />
  <rect x="218" y="26" width="3" height="7" rx="1" ry="1" />
  <rect x="226" y="26" width="3" height="7" rx="1" ry="1" />
  <rect x="234" y="26" width="3" height="7" rx="1" ry="1" />
  <rect x="242" y="26" width="3" height="7" rx="1" ry="1" />
  <rect x="250" y="26" width="3" height="7" rx="1" ry="1" />
  <rect x="258" y="26" width="3" height="7" rx="1" ry="1" />
  <rect x="266" y="26" width="3" height="7" rx="1" ry="1" />
  <rect x="274" y="26" width="3" height="7" rx="1" ry="1" />
  <rect x="290" y="26" width="3" height="7" rx="1" ry="1" />
  <rect x="298" y="26" width="3" height="7" rx="1" ry="1" />
  <rect x="306" y="26" width="3" height="7" rx="1" ry="1" />
  <rect x="338" y="26" width="3" height="7" rx="1" ry="1" />
  <rect x="346" y="26" width="3" height="7" rx="1" ry="1" />
  <rect x="354" y="26" width="3" height="7" rx="1" ry="1" />
  <rect x="362" y="26" width="3" height="7" rx="1" ry="1" />
  <rect x="370" y="26" width="3" height="7" rx="1" ry="1" />
  <rect x="378" y="26" width="3" height="7" rx="1" ry="1" />
  <rect x="386" y="26" width="3" height="7" rx="1" ry="1" />
  <rect x="402" y="26" width="3" height="7" rx="1" ry="1" />
  <rect x="410" y="26" width="3" height="7" rx="1" ry="1" />
  <rect x="418" y="26" width="3" height="7" rx="1" ry="1" />
  <rect x="426" y="26" width="3" height="7" rx="1" ry="1" />
  <rect x="434" y="26" width="3" height="7" rx="1" ry="1" />
  <rect x="442" y="26" width="3" height="7" rx="1" ry="1" />
  <rect x="450" y="26" width="3" height="7" rx="1" ry="1" />
  <rect x="458" y="26" width="3" height="7" rx="1" ry="1" />
  <rect x="466" y="26" width="3" height="7" rx="1" ry="1" />
  <rect x="474" y="26" width="3" height="7" rx="1" ry="1" />
  <rect x="482" y="26" width="3" height="7" rx="1" ry="1" />
  <rect x="490" y="26" width="3" height="7" rx="1" ry="1" />
  <rect x="498" y="26" width="3" height="7" rx="1" ry="1" />
  <rect x="506" y="26" width="3" height="7" rx="1" ry="1" />
  <rect x="10" y="34" width="3" height="7" rx="1" ry="1" />
  <rect x="18" y="34" width="3" height="7" rx="1" ry="1" />
  <rect x="50" y="34" width="3" height="7" rx="1" ry="1" />
  <rect x="58" y="34" width="3" height="7" rx="1" ry="1" />
  <rect x="66" y="34" width="3" height="7" rx="1" ry="1" />
  <rect x="74" y="34" width="3" height="7" rx="1" ry="1" />
  <rect x="82" y="34" width="3" height="7" rx="1" ry="1" />
  <rect x="90" y="34" width="3" height="7" rx="1" ry="1" />
  <rect x="122" y="34" width="3" height="7" rx="1" ry="1" />
  <rect x="130" y="34" width="3" height="7" rx="1" ry="1" />
  <rect x="138" y="34" width="3" height="7" rx="1" ry="1" />
  <rect x="146" y="34" width="3" height="7" rx="1" ry="1" />
  <rect x="154" y="34" width="3" height="7" rx="1" ry="1" />
  <rect x="186" y="34" width="3" height="7" rx="1" ry="1" />
  <rect x="194" y="34" width="3" height="7" rx="1" ry="1" />
  <rect x="202" y="34" width="3" height="7" rx="1" ry="1" />
  <rect x="210" y="34" width="3" height="7" rx="1" ry="1" />
  <rect x="218" y="34" width="3" height="7" rx="1" ry="1" />
  <rect x="226" y="34" width="3" height="7" rx="1" ry="1" />
  <rect x="234" y="34" width="3" height="7" rx="1" ry="1" />
  <rect x="242" y="34" width="3" height="7" rx="1" ry="1" />
  <rect x="250" y="34" width="3" height="7" rx="1" ry="1" />
  <rect x="258" y="34" width="3" height="7" rx="1" ry="1" />
  <rect x="266" y="34" width="3" height="7" rx="1" ry="1" />
  <rect x="274" y="34" width="3" height="7" rx="1" ry="1" />
  <rect x="282" y="34" width="3" height="7" rx="1" ry="1" />
  <rect x="290" y="34" width="3" height="7" rx="1" ry="1" />
  <rect x="298" y="34" width="3" height="7" rx="1" ry="1" />
  <rect x="306" y="34" width="3" height="7" rx="1" ry="1" />
  <rect x="338" y="34" width="3" height="7" rx="1" ry="1" />
  <rect x="346" y="34" width="3" height="7" rx="1" ry="1" />
  <rect x="354" y="34" width="3" height="7" rx="1" ry="1" />
  <rect x="362" y="34" width="3" height="7" rx="1" ry="1" />
  <rect x="370" y="34" width="3" height="7" rx="1" ry="1" />
  <rect x="378" y="34" width="3" height="7" rx="1" ry="1" />
  <rect x="386" y="34" width="3" height="7" rx="1" ry="1" />
  <rect x="402" y="34" width="3" height="7" rx="1" ry="1" />
  <rect x="410" y="34" width="3" height="7" rx="1" ry="1" />
  <rect x="418" y="34" width="3" height="7" rx="1" ry="1" />
  <rect x="426" y="34" width="3" height="7" rx="1" ry="1" />
  <rect x="434" y="34" width="3" height="7" rx="1" ry="1" />
  <rect x="442" y="34" width="3" height="7" rx="1" ry="1" />
  <rect x="450" y="34" width="3" height="7" rx="1" ry="1" />
  <rect x="458" y="34" width="3" height="7" rx="1" ry="1" />
  <rect x="466" y="34" width="3" height="7" rx="1" ry="1" />
  <rect x="474" y="34" width="3" height="7" rx="1" ry="1" />
  <rect x="482" y="34" width="3" height="7" rx="1" ry="1" />
  <rect x="490" y="34" width="3" height="7" rx="1" ry="1" />
  <rect x="498" y="34" width="3" height="7" rx="1" ry="1" />
  <rect x="506" y="34" width="3" height="7" rx="1" ry="1" />
  <rect x="10" y="42" width="3" height="7" rx="1" ry="1" />
  <rect x="18" y="42" width="3" height="7" rx="1" ry="1" />
  <rect x="26" y="42" width="3" height="7" rx="1" ry="1" />
  <rect x="34" y="42" width="3" height="7" rx="1" ry="1" />
  <rect x="42" y="42" width="3" height="7" rx="1" ry="1" />
  <rect x="50" y="42" width="3" height="7" rx="1" ry="1" />
  <rect x="58" y="42" width="3" height="7" rx="1" ry="1" />
  <rect x="66" y="42" width="3" height="7" rx="1" ry="1" />
  <rect x="74" y="42" width="3" height="7" rx="1" ry="1" />
  <rect x="82" y="42" width="3" height="7" rx="1" ry="1" />
  <rect x="90" y="42" width="3" height="7" rx="1" ry="1" />
  <rect x="98" y="42" width="3" height="7" rx="1" ry="1" />
  <rect x="106" y="42" width="3" height="7" rx="1" ry="1" />
  <rect x="114" y="42" width="3" height="7" rx="1" ry="1" />
  <rect x="122" y="42" width="3" height="7" rx="1" ry="1" />
  <rect x="130" y="42" width="3" height="7" rx="1" ry="1" />
  <rect x="138" y="42" width="3" height="7" rx="1" ry="1" />
  <rect x="146" y="42" width="3" height="7" rx="1" ry="1" />
  <rect x="154" y="42" width="3" height="7" rx="1" ry="1" />
  <rect x="162" y="42" width="3" height="7" rx="1" ry="1" />
  <rect x="170" y="42" width="3" height="7" rx="1" ry="1" />
  <rect x="178" y="42" width="3" height="7" rx="1" ry="1" />
  <rect x="186" y="42" width="3" height="7" rx="1" ry="1" />
  <rect x="194" y="42" width="3" height="7" rx="1" ry="1" />
  <rect x="202" y="42" width="3" height="7" rx="1" ry="1" />
  <rect x="210" y="42" width="3" height="7" rx="1" ry="1" />
  <rect x="218" y="42" width="3" height="7" rx="1" ry="1" />
  <rect x="226" y="42" width="3" height="7" rx="1" ry="1" />
  <rect x="234" y="42" width="3" height="7" rx="1" ry="1" />
  <rect x="242" y="42" width="3" height="7" rx="1" ry="1" />
  <rect x="250" y="42" width="3" height="7" rx="1" ry="1" />
  <rect x="266" y="42" width="3" height="7" rx="1" ry="1" />
  <rect x="274" y="42" width="3" height="7" rx="1" ry="1" />
  <rect x="282" y="42" width="3" height="7" rx="1" ry="1" />
  <rect x="290" y="42" width="3" height="7" rx="1" ry="1" />
  <rect x="298" y="42" width="3" height="7" rx="1" ry="1" />
  <rect x="306" y="42" width="3" height="7" rx="1" ry="1" />
  <rect x="314" y="42" width="3" height="7" rx="1" ry="1" />
  <rect x="322" y="42" width="3" height="7" rx="1" ry="1" />
  <rect x="330" y="42" width="3" height="7" rx="1" ry="1" />
  <rect x="338" y="42" width="3" height="7" rx="1" ry="1" />
  <rect x="346" y="42" width="3" height="7" rx="1" ry="1" />
  <rect x="354" y="42" width="3" height="7" rx="1" ry="1" />
  <rect x="378" y="42" width="3" height="7" rx="1" ry="1" />
  <rect x="386" y="42" width="3" height="7" rx="1" ry="1" />
  <rect x="394" y="42" width="3" height="7" rx="1" ry="1" />
  <rect x="402" y="42" width="3" height="7" rx="1" ry="1" />
  <rect x="410" y="42" width="3" height="7" rx="1" ry="1" />
  <rect x="418" y="42" width="3" height="7" rx="1" ry="1" />
  <rect x="426" y="42" width="3" height="7" rx="1" ry="1" />
  <rect x="434" y="42" width="3" height="7" rx="1" ry="1" />
  <rect x="442" y="42" width="3" height="7" rx="1" ry="1" />
  <rect x="458" y="42" width="3" height="7" rx="1" ry="1" />
  <rect x="466" y="42" width="3" height="7" rx="1" ry="1" />
  <rect x="474" y="42" width="3" height="7" rx="1" ry="1" />
  <rect x="490" y="42" width="3" height="7" rx="1" ry="1" />
  <rect x="498" y="42" width="3" height="7" rx="1" ry="1" />
  <rect x="506" y="42" width="3" height="7" rx="1" ry="1" />
  <rect x="18" y="50" width="3" height="7" rx="1" ry="1" />
  <rect x="26" y="50" width="3" height="7" rx="1" ry="1" />
  <rect x="34" y="50" width="3" height="7" rx="1" ry="1" />
  <rect x="42" y="50" width="3" height="7" rx="1" ry="1" />
  <rect x="50" y="50" width="3" height="7" rx="1" ry="1" />
  <rect x="58" y="50" width="3" height="7" rx="1" ry="1" />
  <rect x="82" y="50" width="3" height="7" rx="1" ry="1" />
  <rect x="90" y="50" width="3" height="7" rx="1" ry="1" />
  <rect x="98" y="50" width="3" height="7" rx="1" ry="1" />
  <rect x="106" y="50" width="3" height="7" rx="1" ry="1" />
  <rect x="114" y="50" width="3" height="7" rx="1" ry="1" />
  <rect x="122" y="50" width="3" height="7" rx="1" ry="1" />
  <rect x="130" y="50" width="3" height="7" rx="1" ry="1" />
  <rect x="154" y="50" width="3" height="7" rx="1" ry="1" />
  <rect x="162" y="50" width="3" height="7" rx="1" ry="1" />
  <rect x="170" y="50" width="3" height="7" rx="1" ry="1" />
  <rect x="178" y="50" width="3" height="7" rx="1" ry="1" />
  <rect x="186" y="50" width="3" height="7" rx="1" ry="1" />
  <rect x="194" y="50" width="3" height="7" rx="1" ry="1" />
  <rect x="210" y="50" width="3" height="7" rx="1" ry="1" />
  <rect x="218" y="50" width="3" height="7" rx="1" ry="1" />
  <rect x="226" y="50" width="3" height="7" rx="1" ry="1" />
  <rect x="234" y="50" width="3" height="7" rx="1" ry="1" />
  <rect x="242" y="50" width="3" height="7" rx="1" ry="1" />
  <rect x="250" y="50" width="3" height="7" rx="1" ry="1" />
  <rect x="274" y="50" width="3" height="7" rx="1" ry="1" />
  <rect x="282" y="50" width="3" height="7" rx="1" ry="1" />
  <rect x="290" y="50" width="3" height="7" rx="1" ry="1" />
  <rect x="298" y="50" width="3" height="7" rx="1" ry="1" />
  <rect x="306" y="50" width="3" height="7" rx="1" ry="1" />
  <rect x="314" y="50" width="3" height="7" rx="1" ry="1" />
  <rect x="322" y="50" width="3" height="7" rx="1" ry="1" />
  <rect x="330" y="50" width="3" height="7" rx="1" ry="1" />
  <rect x="338" y="50" width="3" height="7" rx="1" ry="1" />
  <rect x="346" y="50" width="3" height="7" rx="1" ry="1" />
  <rect x="354" y="50" width="3" height="7" rx="1" ry="1" />
  <rect x="378" y="50" width="3" height="7" rx="1" ry="1" />
  <rect x="386" y="50" width="3" height="7" rx="1" ry="1" />
  <rect x="394" y="50" width="3" height="7" rx="1" ry="1" />
  <rect x="402" y="50" width="3" height="7" rx="1" ry="1" />
  <rect x="410" y="50" width="3" height="7" rx="1" ry="1" />
  <rect x="418" y="50" width="3" height="7" rx="1" ry="1" />
  <rect x="426" y="50" width="3" height="7" rx="1" ry="1" />
  <rect x="434" y="50" width="3" height="7" rx="1" ry="1" />
  <rect x="442" y="50" width="3" height="7" rx="1" ry="1" />
  <rect x="490" y="50" width="3" height="7" rx="1" ry="1" />
  <rect x="498" y="50" width="3" height="7" rx="1" ry="1" />
  <rect x="506" y="50" width="3" height="7" rx="1" ry="1" />
</svg>