<svg xmlns="http://www.w3.org/2000/svg" viewBox="0 0 390 60" fill="currentColor" aria-hidden="true" preserveAspectRatio="xMidYMid meet">
  <rect x="36" y="6" width="6" height="8" rx="1" ry="1" />
    <rect x="42" y="6" width="6" height="8" rx="1" ry="1" />
    <rect x="48" y="6" width="6" height="8" rx="1" ry="1" />
    <rect x="54" y="6" width="6" height="8" rx="1" ry="1" />
    <rect x="60" y="6" width="6" height="8" rx="1" ry="1" />
    <rect x="66" y="6" width="6" height="8" rx="1" ry="1" />
    <rect x="90" y="6" width="6" height="8" rx="1" ry="1" />
    <rect x="96" y="6" width="6" height="8" rx="1" ry="1" />
    <rect x="102" y="6" width="6" height="8" rx="1" ry="1" />
    <rect x="138" y="6" width="6" height="8" rx="1" ry="1" />
    <rect x="144" y="6" width="6" height="8" rx="1" ry="1" />
    <rect x="150" y="6" width="6" height="8" rx="1" ry="1" />
    <rect x="156" y="6" width="6" height="8" rx="1" ry="1" />
    <rect x="162" y="6" width="6" height="8" rx="1" ry="1" />
    <rect x="168" y="6" width="6" height="8" rx="1" ry="1" />
    <rect x="174" y="6" width="6" height="8" rx="1" ry="1" />
    <rect x="180" y="6" width="6" height="8" rx="1" ry="1" />
    <rect x="186" y="6" width="6" height="8" rx="1" ry="1" />
    <rect x="192" y="6" width="6" height="8" rx="1" ry="1" />
    <rect x="216" y="6" width="6" height="8" rx="1" ry="1" />
    <rect x="222" y="6" width="6" height="8" rx="1" ry="1" />
    <rect x="228" y="6" width="6" height="8" rx="1" ry="1" />
    <rect x="252" y="6" width="6" height="8" rx="1" ry="1" />
    <rect x="258" y="6" width="6" height="8" rx="1" ry="1" />
    <rect x="264" y="6" width="6" height="8" rx="1" ry="1" />
    <rect x="282" y="6" width="6" height="8" rx="1" ry="1" />
    <rect x="288" y="6" width="6" height="8" rx="1" ry="1" />
    <rect x="294" y="6" width="6" height="8" rx="1" ry="1" />
    <rect x="300" y="6" width="6" height="8" rx="1" ry="1" />
    <rect x="306" y="6" width="6" height="8" rx="1" ry="1" />
    <rect x="312" y="6" width="6" height="8" rx="1" ry="1" />
    <rect x="318" y="6" width="6" height="8" rx="1" ry="1" />
    <rect x="324" y="6" width="6" height="8" rx="1" ry="1" />
    <rect x="330" y="6" width="6" height="8" rx="1" ry="1" />
    <rect x="336" y="6" width="6" height="8" rx="1" ry="1" />
    <rect x="360" y="6" width="6" height="8" rx="1" ry="1" />
    <rect x="366" y="6" width="6" height="8" rx="1" ry="1" />
    <rect x="372" y="6" width="6" height="8" rx="1" ry="1" />
    <rect x="378" y="6" width="6" height="8" rx="1" ry="1" />
    <rect x="36" y="14" width="6" height="8" rx="1" ry="1" />
    <rect x="42" y="14" width="6" height="8" rx="1" ry="1" />
    <rect x="48" y="14" width="6" height="8" rx="1" ry="1" />
    <rect x="54" y="14" width="6" height="8" rx="1" ry="1" />
    <rect x="60" y="14" width="6" height="8" rx="1" ry="1" />
    <rect x="66" y="14" width="6" height="8" rx="1" ry="1" />
    <rect x="90" y="14" width="6" height="8" rx="1" ry="1" />
    <rect x="96" y="14" width="6" height="8" rx="1" ry="1" />
    <rect x="102" y="14" width="6" height="8" rx="1" ry="1" />
    <rect x="138" y="14" width="6" height="8" rx="1" ry="1" />
    <rect x="144" y="14" width="6" height="8" rx="1" ry="1" />
    <rect x="150" y="14" width="6" height="8" rx="1" ry="1" />
    <rect x="156" y="14" width="6" height="8" rx="1" ry="1" />
    <rect x="162" y="14" width="6" height="8" rx="1" ry="1" />
    <rect x="168" y="14" width="6" height="8" rx="1" ry="1" />
    <rect x="174" y="14" width="6" height="8" rx="1" ry="1" />
    <rect x="180" y="14" width="6" height="8" rx="1" ry="1" />
    <rect x="186" y="14" width="6" height="8" rx="1" ry="1" />
    <rect x="192" y="14" width="6" height="8" rx="1" ry="1" />
    <rect x="198" y="14" width="6" height="8" rx="1" ry="1" />
    <rect x="216" y="14" width="6" height="8" rx="1" ry="1" />
    <rect x="222" y="14" width="6" height="8" rx="1" ry="1" />
    <rect x="228" y="14" width="6" height="8" rx="1" ry="1" />
    <rect x="252" y="14" width="6" height="8" rx="1" ry="1" />
    <rect x="258" y="14" width="6" height="8" rx="1" ry="1" />
    <rect x="264" y="14" width="6" height="8" rx="1" ry="1" />
    <rect x="276" y="14" width="6" height="8" rx="1" ry="1" />
    <rect x="282" y="14" width="6" height="8" rx="1" ry="1" />
    <rect x="288" y="14" width="6" height="8" rx="1" ry="1" />
    <rect x="294" y="14" width="6" height="8" rx="1" ry="1" />
    <rect x="300" y="14" width="6" height="8" rx="1" ry="1" />
    <rect x="306" y="14" width="6" height="8" rx="1" ry="1" />
    <rect x="312" y="14" width="6" height="8" rx="1" ry="1" />
    <rect x="318" y="14" width="6" height="8" rx="1" ry="1" />
    <rect x="324" y="14" width="6" height="8" rx="1" ry="1" />
    <rect x="330" y="14" width="6" height="8" rx="1" ry="1" />
    <rect x="336" y="14" width="6" height="8" rx="1" ry="1" />
    <rect x="342" y="14" width="6" height="8" rx="1" ry="1" />
    <rect x="354" y="14" width="6" height="8" rx="1" ry="1" />
    <rect x="360" y="14" width="6" height="8" rx="1" ry="1" />
    <rect x="366" y="14" width="6" height="8" rx="1" ry="1" />
    <rect x="372" y="14" width="6" height="8" rx="1" ry="1" />
    <rect x="378" y="14" width="6" height="8" rx="1" ry="1" />
    <rect x="36" y="22" width="6" height="8" rx="1" ry="1" />
    <rect x="42" y="22" width="6" height="8" rx="1" ry="1" />
    <rect x="48" y="22" width="6" height="8" rx="1" ry="1" />
    <rect x="54" y="22" width="6" height="8" rx="1" ry="1" />
    <rect x="60" y="22" width="6" height="8" rx="1" ry="1" />
    <rect x="66" y="22" width="6" height="8" rx="1" ry="1" />
    <rect x="90" y="22" width="6" height="8" rx="1" ry="1" />
    <rect x="96" y="22" width="6" height="8" rx="1" ry="1" />
    <rect x="102" y="22" width="6" height="8" rx="1" ry="1" />
    <rect x="138" y="22" width="6" height="8" rx="1" ry="1" />
    <rect x="144" y="22" width="6" height="8" rx="1" ry="1" />
    <rect x="150" y="22" width="6" height="8" rx="1" ry="1" />
    <rect x="156" y="22" width="6" height="8" rx="1" ry="1" />
    <rect x="162" y="22" width="6" height="8" rx="1" ry="1" />
    <rect x="168" y="22" width="6" height="8" rx="1" ry="1" />
    <rect x="174" y="22" width="6" height="8" rx="1" ry="1" />
    <rect x="180" y="22" width="6" height="8" rx="1" ry="1" />
    <rect x="186" y="22" width="6" height="8" rx="1" ry="1" />
    <rect x="192" y="22" width="6" height="8" rx="1" ry="1" />
    <rect x="198" y="22" width="6" height="8" rx="1" ry="1" />
    <rect x="204" y="22" width="6" height="8" rx="1" ry="1" />
    <rect x="216" y="22" width="6" height="8" rx="1" ry="1" />
    <rect x="222" y="22" width="6" height="8" rx="1" ry="1" />
    <rect x="228" y="22" width="6" height="8" rx="1" ry="1" />
    <rect x="252" y="22" width="6" height="8" rx="1" ry="1" />
    <rect x="258" y="22" width="6" height="8" rx="1" ry="1" />
    <rect x="264" y="22" width="6" height="8" rx="1" ry="1" />
    <rect x="270" y="22" width="6" height="8" rx="1" ry="1" />
    <rect x="276" y="22" width="6" height="8" rx="1" ry="1" />
    <rect x="282" y="22" width="6" height="8" rx="1" ry="1" />
    <rect x="288" y="22" width="6" height="8" rx="1" ry="1" />
    <rect x="300" y="22" width="6" height="8" rx="1" ry="1" />
    <rect x="306" y="22" width="6" height="8" rx="1" ry="1" />
    <rect x="312" y="22" width="6" height="8" rx="1" ry="1" />
    <rect x="318" y="22" width="6" height="8" rx="1" ry="1" />
    <rect x="324" y="22" width="6" height="8" rx="1" ry="1" />
    <rect x="330" y="22" width="6" height="8" rx="1" ry="1" />
    <rect x="336" y="22" width="6" height="8" rx="1" ry="1" />
    <rect x="342" y="22" width="6" height="8" rx="1" ry="1" />
    <rect x="348" y="22" width="6" height="8" rx="1" ry="1" />
    <rect x="354" y="22" width="6" height="8" rx="1" ry="1" />
    <rect x="360" y="22" width="6" height="8" rx="1" ry="1" />
    <rect x="366" y="22" width="6" height="8" rx="1" ry="1" />
    <rect x="372" y="22" width="6" height="8" rx="1" ry="1" />
    <rect x="378" y="22" width="6" height="8" rx="1" ry="1" />
    <rect x="6" y="30" width="6" height="8" rx="1" ry="1" />
    <rect x="12" y="30" width="6" height="8" rx="1" ry="1" />
    <rect x="36" y="30" width="6" height="8" rx="1" ry="1" />
    <rect x="42" y="30" width="6" height="8" rx="1" ry="1" />
    <rect x="48" y="30" width="6" height="8" rx="1" ry="1" />
    <rect x="54" y="30" width="6" height="8" rx="1" ry="1" />
    <rect x="60" y="30" width="6" height="8" rx="1" ry="1" />
    <rect x="66" y="30" width="6" height="8" rx="1" ry="1" />
    <rect x="90" y="30" width="6" height="8" rx="1" ry="1" />
    <rect x="96" y="30" width="6" height="8" rx="1" ry="1" />
    <rect x="102" y="30" width="6" height="8" rx="1" ry="1" />
    <rect x="108" y="30" width="6" height="8" rx="1" ry="1" />
    <rect x="114" y="30" width="6" height="8" rx="1" ry="1" />
    <rect x="138" y="30" width="6" height="8" rx="1" ry="1" />
    <rect x="144" y="30" width="6" height="8" rx="1" ry="1" />
    <rect x="150" y="30" width="6" height="8" rx="1" ry="1" />
    <rect x="156" y="30" width="6" height="8" rx="1" ry="1" />
    <rect x="162" y="30" width="6" height="8" rx="1" ry="1" />
    <rect x="168" y="30" width="6" height="8" rx="1" ry="1" />
    <rect x="174" y="30" width="6" height="8" rx="1" ry="1" />
    <rect x="180" y="30" width="6" height="8" rx="1" ry="1" />
    <rect x="186" y="30" width="6" height="8" rx="1" ry="1" />
    <rect x="192" y="30" width="6" height="8" rx="1" ry="1" />
    <rect x="198" y="30" width="6" height="8" rx="1" ry="1" />
    <rect x="204" y="30" width="6" height="8" rx="1" ry="1" />
    <rect x="210" y="30" width="6" height="8" rx="1" ry="1" />
    <rect x="216" y="30" width="6" height="8" rx="1" ry="1" />
    <rect x="222" y="30" width="6" height="8" rx="1" ry="1" />
    <rect x="228" y="30" width="6" height="8" rx="1" ry="1" />
    <rect x="252" y="30" width="6" height="8" rx="1" ry="1" />
    <rect x="258" y="30" width="6" height="8" rx="1" ry="1" />
    <rect x="264" y="30" width="6" height="8" rx="1" ry="1" />
    <rect x="270" y="30" width="6" height="8" rx="1" ry="1" />
    <rect x="276" y="30" width="6" height="8" rx="1" ry="1" />
    <rect x="282" y="30" width="6" height="8" rx="1" ry="1" />
    <rect x="288" y="30" width="6" height="8" rx="1" ry="1" />
    <rect x="300" y="30" width="6" height="8" rx="1" ry="1" />
    <rect x="306" y="30" width="6" height="8" rx="1" ry="1" />
    <rect x="312" y="30" width="6" height="8" rx="1" ry="1" />
    <rect x="318" y="30" width="6" height="8" rx="1" ry="1" />
    <rect x="324" y="30" width="6" height="8" rx="1" ry="1" />
    <rect x="330" y="30" width="6" height="8" rx="1" ry="1" />
    <rect x="336" y="30" width="6" height="8" rx="1" ry="1" />
    <rect x="342" y="30" width="6" height="8" rx="1" ry="1" />
    <rect x="348" y="30" width="6" height="8" rx="1" ry="1" />
    <rect x="354" y="30" width="6" height="8" rx="1" ry="1" />
    <rect x="360" y="30" width="6" height="8" rx="1" ry="1" />
    <rect x="366" y="30" width="6" height="8" rx="1" ry="1" />
    <rect x="372" y="30" width="6" height="8" rx="1" ry="1" />
    <rect x="378" y="30" width="6" height="8" rx="1" ry="1" />
    <rect x="6" y="38" width="6" height="8" rx="1" ry="1" />
    <rect x="12" y="38" width="6" height="8" rx="1" ry="1" />
    <rect x="18" y="38" width="6" height="8" rx="1" ry="1" />
    <rect x="24" y="38" width="6" height="8" rx="1" ry="1" />
    <rect x="30" y="38" width="6" height="8" rx="1" ry="1" />
    <rect x="36" y="38" width="6" height="8" rx="1" ry="1" />
    <rect x="42" y="38" width="6" height="8" rx="1" ry="1" />
    <rect x="48" y="38" width="6" height="8" rx="1" ry="1" />
    <rect x="54" y="38" width="6" height="8" rx="1" ry="1" />
    <rect x="60" y="38" width="6" height="8" rx="1" ry="1" />
    <rect x="66" y="38" width="6" height="8" rx="1" ry="1" />
    <rect x="72" y="38" width="6" height="8" rx="1" ry="1" />
    <rect x="78" y="38" width="6" height="8" rx="1" ry="1" />
    <rect x="84" y="38" width="6" height="8" rx="1" ry="1" />
    <rect x="90" y="38" width="6" height="8" rx="1" ry="1" />
    <rect x="96" y="38" width="6" height="8" rx="1" ry="1" />
    <rect x="102" y="38" width="6" height="8" rx="1" ry="1" />
    <rect x="108" y="38" width="6" height="8" rx="1" ry="1" />
    <rect x="114" y="38" width="6" height="8" rx="1" ry="1" />
    <rect x="120" y="38" width="6" height="8" rx="1" ry="1" />
    <rect x="126" y="38" width="6" height="8" rx="1" ry="1" />
    <rect x="132" y="38" width="6" height="8" rx="1" ry="1" />
    <rect x="138" y="38" width="6" height="8" rx="1" ry="1" />
    <rect x="144" y="38" width="6" height="8" rx="1" ry="1" />
    <rect x="150" y="38" width="6" height="8" rx="1" ry="1" />
    <rect x="156" y="38" width="6" height="8" rx="1" ry="1" />
    <rect x="162" y="38" width="6" height="8" rx="1" ry="1" />
    <rect x="168" y="38" width="6" height="8" rx="1" ry="1" />
    <rect x="174" y="38" width="6" height="8" rx="1" ry="1" />
    <rect x="180" y="38" width="6" height="8" rx="1" ry="1" />
    <rect x="186" y="38" width="6" height="8" rx="1" ry="1" />
    <rect x="198" y="38" width="6" height="8" rx="1" ry="1" />
    <rect x="204" y="38" width="6" height="8" rx="1" ry="1" />
    <rect x="210" y="38" width="6" height="8" rx="1" ry="1" />
    <rect x="216" y="38" width="6" height="8" rx="1" ry="1" />
    <rect x="222" y="38" width="6" height="8" rx="1" ry="1" />
    <rect x="228" y="38" width="6" height="8" rx="1" ry="1" />
    <rect x="234" y="38" width="6" height="8" rx="1" ry="1" />
    <rect x="240" y="38" width="6" height="8" rx="1" ry="1" />
    <rect x="246" y="38" width="6" height="8" rx="1" ry="1" />
    <rect x="252" y="38" width="6" height="8" rx="1" ry="1" />
    <rect x="258" y="38" width="6" height="8" rx="1" ry="1" />
    <rect x="264" y="38" width="6" height="8" rx="1" ry="1" />
    <rect x="282" y="38" width="6" height="8" rx="1" ry="1" />
    <rect x="288" y="38" width="6" height="8" rx="1" ry="1" />
    <rect x="294" y="38" width="6" height="8" rx="1" ry="1" />
    <rect x="300" y="38" width="6" height="8" rx="1" ry="1" />
    <rect x="306" y="38" width="6" height="8" rx="1" ry="1" />
    <rect x="312" y="38" width="6" height="8" rx="1" ry="1" />
    <rect x="318" y="38" width="6" height="8" rx="1" ry="1" />
    <rect x="324" y="38" width="6" height="8" rx="1" ry="1" />
    <rect x="330" y="38" width="6" height="8" rx="1" ry="1" />
    <rect x="342" y="38" width="6" height="8" rx="1" ry="1" />
    <rect x="348" y="38" width="6" height="8" rx="1" ry="1" />
    <rect x="354" y="38" width="6" height="8" rx="1" ry="1" />
    <rect x="366" y="38" width="6" height="8" rx="1" ry="1" />
    <rect x="372" y="38" width="6" height="8" rx="1" ry="1" />
    <rect x="378" y="38" width="6" height="8" rx="1" ry="1" />
    <rect x="12" y="46" width="6" height="8" rx="1" ry="1" />
    <rect x="18" y="46" width="6" height="8" rx="1" ry="1" />
    <rect x="24" y="46" width="6" height="8" rx="1" ry="1" />
    <rect x="30" y="46" width="6" height="8" rx="1" ry="1" />
    <rect x="36" y="46" width="6" height="8" rx="1" ry="1" />
    <rect x="42" y="46" width="6" height="8" rx="1" ry="1" />
    <rect x="60" y="46" width="6" height="8" rx="1" ry="1" />
    <rect x="66" y="46" width="6" height="8" rx="1" ry="1" />
    <rect x="72" y="46" width="6" height="8" rx="1" ry="1" />
    <rect x="78" y="46" width="6" height="8" rx="1" ry="1" />
    <rect x="84" y="46" width="6" height="8" rx="1" ry="1" />
    <rect x="90" y="46" width="6" height="8" rx="1" ry="1" />
    <rect x="96" y="46" width="6" height="8" rx="1" ry="1" />
    <rect x="114" y="46" width="6" height="8" rx="1" ry="1" />
    <rect x="120" y="46" width="6" height="8" rx="1" ry="1" />
    <rect x="126" y="46" width="6" height="8" rx="1" ry="1" />
    <rect x="132" y="46" width="6" height="8" rx="1" ry="1" />
    <rect x="138" y="46" width="6" height="8" rx="1" ry="1" />
    <rect x="144" y="46" width="6" height="8" rx="1" ry="1" />
    <rect x="156" y="46" width="6" height="8" rx="1" ry="1" />
    <rect x="162" y="46" width="6" height="8" rx="1" ry="1" />
    <rect x="168" y="46" width="6" height="8" rx="1" ry="1" />
    <rect x="174" y="46" width="6" height="8" rx="1" ry="1" />
    <rect x="180" y="46" width="6" height="8" rx="1" ry="1" />
    <rect x="186" y="46" width="6" height="8" rx="1" ry="1" />
    <rect x="204" y="46" width="6" height="8" rx="1" ry="1" />
    <rect x="210" y="46" width="6" height="8" rx="1" ry="1" />
    <rect x="216" y="46" width="6" height="8" rx="1" ry="1" />
    <rect x="222" y="46" width="6" height="8" rx="1" ry="1" />
    <rect x="228" y="46" width="6" height="8" rx="1" ry="1" />
    <rect x="234" y="46" width="6" height="8" rx="1" ry="1" />
    <rect x="240" y="46" width="6" height="8" rx="1" ry="1" />
    <rect x="246" y="46" width="6" height="8" rx="1" ry="1" />
    <rect x="252" y="46" width="6" height="8" rx="1" ry="1" />
    <rect x="258" y="46" width="6" height="8" rx="1" ry="1" />
    <rect x="264" y="46" width="6" height="8" rx="1" ry="1" />
    <rect x="282" y="46" width="6" height="8" rx="1" ry="1" />
    <rect x="288" y="46" width="6" height="8" rx="1" ry="1" />
    <rect x="294" y="46" width="6" height="8" rx="1" ry="1" />
    <rect x="300" y="46" width="6" height="8" rx="1" ry="1" />
    <rect x="306" y="46" width="6" height="8" rx="1" ry="1" />
    <rect x="312" y="46" width="6" height="8" rx="1" ry="1" />
    <rect x="318" y="46" width="6" height="8" rx="1" ry="1" />
    <rect x="324" y="46" width="6" height="8" rx="1" ry="1" />
    <rect x="330" y="46" width="6" height="8" rx="1" ry="1" />
    <rect x="366" y="46" width="6" height="8" rx="1" ry="1" />
    <rect x="372" y="46" width="6" height="8" rx="1" ry="1" />
    <rect x="378" y="46" width="6" height="8" rx="1" ry="1" />
</svg>