<svg xmlns="http://www.w3.org/2000/svg" viewBox="0 0 457 76" fill="currentColor" aria-hidden="true" preserveAspectRatio="xMidYMid meet">
  <rect x="43" y="8" width="6" height="9" rx="1" ry="1" />
  <rect x="50" y="8" width="6" height="9" rx="1" ry="1" />
  <rect x="57" y="8" width="6" height="9" rx="1" ry="1" />
  <rect x="64" y="8" width="6" height="9" rx="1" ry="1" />
  <rect x="71" y="8" width="6" height="9" rx="1" ry="1" />
  <rect x="78" y="8" width="6" height="9" rx="1" ry="1" />
  <rect x="106" y="8" width="6" height="9" rx="1" ry="1" />
  <rect x="113" y="8" width="6" height="9" rx="1" ry="1" />
  <rect x="120" y="8" width="6" height="9" rx="1" ry="1" />
  <rect x="162" y="8" width="6" height="9" rx="1" ry="1" />
  <rect x="169" y="8" width="6" height="9" rx="1" ry="1" />
  <rect x="176" y="8" width="6" height="9" rx="1" ry="1" />
  <rect x="183" y="8" width="6" height="9" rx="1" ry="1" />
  <rect x="190" y="8" width="6" height="9" rx="1" ry="1" />
  <rect x="197" y="8" width="6" height="9" rx="1" ry="1" />
  <rect x="204" y="8" width="6" height="9" rx="1" ry="1" />
  <rect x="211" y="8" width="6" height="9" rx="1" ry="1" />
  <rect x="218" y="8" width="6" height="9" rx="1" ry="1" />
  <rect x="225" y="8" width="6" height="9" rx="1" ry="1" />
  <rect x="253" y="8" width="6" height="9" rx="1" ry="1" />
  <rect x="260" y="8" width="6" height="9" rx="1" ry="1" />
  <rect x="267" y="8" width="6" height="9" rx="1" ry="1" />
  <rect x="295" y="8" width="6" height="9" rx="1" ry="1" />
  <rect x="302" y="8" width="6" height="9" rx="1" ry="1" />
  <rect x="309" y="8" width="6" height="9" rx="1" ry="1" />
  <rect x="330" y="8" width="6" height="9" rx="1" ry="1" />
  <rect x="337" y="8" width="6" height="9" rx="1" ry="1" />
  <rect x="344" y="8" width="6" height="9" rx="1" ry="1" />
  <rect x="351" y="8" width="6" height="9" rx="1" ry="1" />
  <rect x="358" y="8" width="6" height="9" rx="1" ry="1" />
  <rect x="365" y="8" width="6" height="9" rx="1" ry="1" />
  <rect x="372" y="8" width="6" height="9" rx="1" ry="1" />
  <rect x="379" y="8" width="6" height="9" rx="1" ry="1" />
  <rect x="386" y="8" width="6" height="9" rx="1" ry="1" />
  <rect x="393" y="8" width="6" height="9" rx="1" ry="1" />
  <rect x="421" y="8" width="6" height="9" rx="1" ry="1" />
  <rect x="428" y="8" width="6" height="9" rx="1" ry="1" />
  <rect x="435" y="8" width="6" height="9" rx="1" ry="1" />
  <rect x="442" y="8" width="6" height="9" rx="1" ry="1" />
  <rect x="43" y="18" width="6" height="9" rx="1" ry="1" />
  <rect x="50" y="18" width="6" height="9" rx="1" ry="1" />
  <rect x="57" y="18" width="6" height="9" rx="1" ry="1" />
  <rect x="64" y="18" width="6" height="9" rx="1" ry="1" />
  <rect x="71" y="18" width="6" height="9" rx="1" ry="1" />
  <rect x="78" y="18" width="6" height="9" rx="1" ry="1" />
  <rect x="106" y="18" width="6" height="9" rx="1" ry="1" />
  <rect x="113" y="18" width="6" height="9" rx="1" ry="1" />
  <rect x="120" y="18" width="6" height="9" rx="1" ry="1" />
  <rect x="162" y="18" width="6" height="9" rx="1" ry="1" />
  <rect x="169" y="18" width="6" height="9" rx="1" ry="1" />
  <rect x="176" y="18" width="6" height="9" rx="1" ry="1" />
  <rect x="183" y="18" width="6" height="9" rx="1" ry="1" />
  <rect x="190" y="18" width="6" height="9" rx="1" ry="1" />
  <rect x="197" y="18" width="6" height="9" rx="1" ry="1" />
  <rect x="204" y="18" width="6" height="9" rx="1" ry="1" />
  <rect x="211" y="18" width="6" height="9" rx="1" ry="1" />
  <rect x="218" y="18" width="6" height="9" rx="1" ry="1" />
  <rect x="225" y="18" width="6" height="9" rx="1" ry="1" />
  <rect x="232" y="18" width="6" height="9" rx="1" ry="1" />
  <rect x="253" y="18" width="6" height="9" rx="1" ry="1" />
  <rect x="260" y="18" width="6" height="9" rx="1" ry="1" />
  <rect x="267" y="18" width="6" height="9" rx="1" ry="1" />
  <rect x="295" y="18" width="6" height="9" rx="1" ry="1" />
  <rect x="302" y="18" width="6" height="9" rx="1" ry="1" />
  <rect x="309" y="18" width="6" height="9" rx="1" ry="1" />
  <rect x="323" y="18" width="6" height="9" rx="1" ry="1" />
  <rect x="330" y="18" width="6" height="9" rx="1" ry="1" />
  <rect x="337" y="18" width="6" height="9" rx="1" ry="1" />
  <rect x="344" y="18" width="6" height="9" rx="1" ry="1" />
  <rect x="351" y="18" width="6" height="9" rx="1" ry="1" />
  <rect x="358" y="18" width="6" height="9" rx="1" ry="1" />
  <rect x="365" y="18" width="6" height="9" rx="1" ry="1" />
  <rect x="372" y="18" width="6" height="9" rx="1" ry="1" />
  <rect x="379" y="18" width="6" height="9" rx="1" ry="1" />
  <rect x="386" y="18" width="6" height="9" rx="1" ry="1" />
  <rect x="393" y="18" width="6" height="9" rx="1" ry="1" />
  <rect x="400" y="18" width="6" height="9" rx="1" ry="1" />
  <rect x="414" y="18" width="6" height="9" rx="1" ry="1" />
  <rect x="421" y="18" width="6" height="9" rx="1" ry="1" />
  <rect x="428" y="18" width="6" height="9" rx="1" ry="1" />
  <rect x="435" y="18" width="6" height="9" rx="1" ry="1" />
  <rect x="442" y="18" width="6" height="9" rx="1" ry="1" />
  <rect x="43" y="28" width="6" height="9" rx="1" ry="1" />
  <rect x="50" y="28" width="6" height="9" rx="1" ry="1" />
  <rect x="57" y="28" width="6" height="9" rx="1" ry="1" />
  <rect x="64" y="28" width="6" height="9" rx="1" ry="1" />
  <rect x="71" y="28" width="6" height="9" rx="1" ry="1" />
  <rect x="78" y="28" width="6" height="9" rx="1" ry="1" />
  <rect x="106" y="28" width="6" height="9" rx="1" ry="1" />
  <rect x="113" y="28" width="6" height="9" rx="1" ry="1" />
  <rect x="120" y="28" width="6" height="9" rx="1" ry="1" />
  <rect x="162" y="28" width="6" height="9" rx="1" ry="1" />
  <rect x="169" y="28" width="6" height="9" rx="1" ry="1" />
  <rect x="176" y="28" width="6" height="9" rx="1" ry="1" />
  <rect x="183" y="28" width="6" height="9" rx="1" ry="1" />
  <rect x="190" y="28" width="6" height="9" rx="1" ry="1" />
  <rect x="197" y="28" width="6" height="9" rx="1" ry="1" />
  <rect x="204" y="28" width="6" height="9" rx="1" ry="1" />
  <rect x="211" y="28" width="6" height="9" rx="1" ry="1" />
  <rect x="218" y="28" width="6" height="9" rx="1" ry="1" />
  <rect x="225" y="28" width="6" height="9" rx="1" ry="1" />
  <rect x="232" y="28" width="6" height="9" rx="1" ry="1" />
  <rect x="239" y="28" width="6" height="9" rx="1" ry="1" />
  <rect x="253" y="28" width="6" height="9" rx="1" ry="1" />
  <rect x="260" y="28" width="6" height="9" rx="1" ry="1" />
  <rect x="267" y="28" width="6" height="9" rx="1" ry="1" />
  <rect x="295" y="28" width="6" height="9" rx="1" ry="1" />
  <rect x="302" y="28" width="6" height="9" rx="1" ry="1" />
  <rect x="309" y="28" width="6" height="9" rx="1" ry="1" />
  <rect x="316" y="28" width="6" height="9" rx="1" ry="1" />
  <rect x="323" y="28" width="6" height="9" rx="1" ry="1" />
  <rect x="330" y="28" width="6" height="9" rx="1" ry="1" />
  <rect x="337" y="28" width="6" height="9" rx="1" ry="1" />
  <rect x="351" y="28" width="6" height="9" rx="1" ry="1" />
  <rect x="358" y="28" width="6" height="9" rx="1" ry="1" />
  <rect x="365" y="28" width="6" height="9" rx="1" ry="1" />
  <rect x="372" y="28" width="6" height="9" rx="1" ry="1" />
  <rect x="379" y="28" width="6" height="9" rx="1" ry="1" />
  <rect x="386" y="28" width="6" height="9" rx="1" ry="1" />
  <rect x="393" y="28" width="6" height="9" rx="1" ry="1" />
  <rect x="400" y="28" width="6" height="9" rx="1" ry="1" />
  <rect x="407" y="28" width="6" height="9" rx="1" ry="1" />
  <rect x="414" y="28" width="6" height="9" rx="1" ry="1" />
  <rect x="421" y="28" width="6" height="9" rx="1" ry="1" />
  <rect x="428" y="28" width="6" height="9" rx="1" ry="1" />
  <rect x="435" y="28" width="6" height="9" rx="1" ry="1" />
  <rect x="442" y="28" width="6" height="9" rx="1" ry="1" />
  <rect x="8" y="38" width="6" height="9" rx="1" ry="1" />
  <rect x="15" y="38" width="6" height="9" rx="1" ry="1" />
  <rect x="43" y="38" width="6" height="9" rx="1" ry="1" />
  <rect x="50" y="38" width="6" height="9" rx="1" ry="1" />
  <rect x="57" y="38" width="6" height="9" rx="1" ry="1" />
  <rect x="64" y="38" width="6" height="9" rx="1" ry="1" />
  <rect x="71" y="38" width="6" height="9" rx="1" ry="1" />
  <rect x="78" y="38" width="6" height="9" rx="1" ry="1" />
  <rect x="106" y="38" width="6" height="9" rx="1" ry="1" />
  <rect x="113" y="38" width="6" height="9" rx="1" ry="1" />
  <rect x="120" y="38" width="6" height="9" rx="1" ry="1" />
  <rect x="127" y="38" width="6" height="9" rx="1" ry="1" />
  <rect x="134" y="38" width="6" height="9" rx="1" ry="1" />
  <rect x="162" y="38" width="6" height="9" rx="1" ry="1" />
  <rect x="169" y="38" width="6" height="9" rx="1" ry="1" />
  <rect x="176" y="38" width="6" height="9" rx="1" ry="1" />
  <rect x="183" y="38" width="6" height="9" rx="1" ry="1" />
  <rect x="190" y="38" width="6" height="9" rx="1" ry="1" />
  <rect x="197" y="38" width="6" height="9" rx="1" ry="1" />
  <rect x="204" y="38" width="6" height="9" rx="1" ry="1" />
  <rect x="211" y="38" width="6" height="9" rx="1" ry="1" />
  <rect x="218" y="38" width="6" height="9" rx="1" ry="1" />
  <rect x="225" y="38" width="6" height="9" rx="1" ry="1" />
  <rect x="232" y="38" width="6" height="9" rx="1" ry="1" />
  <rect x="239" y="38" width="6" height="9" rx="1" ry="1" />
  <rect x="246" y="38" width="6" height="9" rx="1" ry="1" />
  <rect x="253" y="38" width="6" height="9" rx="1" ry="1" />
  <rect x="260" y="38" width="6" height="9" rx="1" ry="1" />
  <rect x="267" y="38" width="6" height="9" rx="1" ry="1" />
  <rect x="295" y="38" width="6" height="9" rx="1" ry="1" />
  <rect x="302" y="38" width="6" height="9" rx="1" ry="1" />
  <rect x="309" y="38" width="6" height="9" rx="1" ry="1" />
  <rect x="316" y="38" width="6" height="9" rx="1" ry="1" />
  <rect x="323" y="38" width="6" height="9" rx="1" ry="1" />
  <rect x="330" y="38" width="6" height="9" rx="1" ry="1" />
  <rect x="337" y="38" width="6" height="9" rx="1" ry="1" />
  <rect x="351" y="38" width="6" height="9" rx="1" ry="1" />
  <rect x="358" y="38" width="6" height="9" rx="1" ry="1" />
  <rect x="365" y="38" width="6" height="9" rx="1" ry="1" />
  <rect x="372" y="38" width="6" height="9" rx="1" ry="1" />
  <rect x="379" y="38" width="6" height="9" rx="1" ry="1" />
  <rect x="386" y="38" width="6" height="9" rx="1" ry="1" />
  <rect x="393" y="38" width="6" height="9" rx="1" ry="1" />
  <rect x="400" y="38" width="6" height="9" rx="1" ry="1" />
  <rect x="407" y="38" width="6" height="9" rx="1" ry="1" />
  <rect x="414" y="38" width="6" height="9" rx="1" ry="1" />
  <rect x="421" y="38" width="6" height="9" rx="1" ry="1" />
  <rect x="428" y="38" width="6" height="9" rx="1" ry="1" />
  <rect x="435" y="38" width="6" height="9" rx="1" ry="1" />
  <rect x="442" y="38" width="6" height="9" rx="1" ry="1" />
  <rect x="8" y="48" width="6" height="9" rx="1" ry="1" />
  <rect x="15" y="48" width="6" height="9" rx="1" ry="1" />
  <rect x="22" y="48" width="6" height="9" rx="1" ry="1" />
  <rect x="29" y="48" width="6" height="9" rx="1" ry="1" />
  <rect x="36" y="48" width="6" height="9" rx="1" ry="1" />
  <rect x="43" y="48" width="6" height="9" rx="1" ry="1" />
  <rect x="50" y="48" width="6" height="9" rx="1" ry="1" />
  <rect x="57" y="48" width="6" height="9" rx="1" ry="1" />
  <rect x="64" y="48" width="6" height="9" rx="1" ry="1" />
  <rect x="71" y="48" width="6" height="9" rx="1" ry="1" />
  <rect x="78" y="48" width="6" height="9" rx="1" ry="1" />
  <rect x="85" y="48" width="6" height="9" rx="1" ry="1" />
  <rect x="92" y="48" width="6" height="9" rx="1" ry="1" />
  <rect x="99" y="48" width="6" height="9" rx="1" ry="1" />
  <rect x="106" y="48" width="6" height="9" rx="1" ry="1" />
  <rect x="113" y="48" width="6" height="9" rx="1" ry="1" />
  <rect x="120" y="48" width="6" height="9" rx="1" ry="1" />
  <rect x="127" y="48" width="6" height="9" rx="1" ry="1" />
  <rect x="134" y="48" width="6" height="9" rx="1" ry="1" />
  <rect x="141" y="48" width="6" height="9" rx="1" ry="1" />
  <rect x="148" y="48" width="6" height="9" rx="1" ry="1" />
  <rect x="155" y="48" width="6" height="9" rx="1" ry="1" />
  <rect x="162" y="48" width="6" height="9" rx="1" ry="1" />
  <rect x="169" y="48" width="6" height="9" rx="1" ry="1" />
  <rect x="176" y="48" width="6" height="9" rx="1" ry="1" />
  <rect x="183" y="48" width="6" height="9" rx="1" ry="1" />
  <rect x="190" y="48" width="6" height="9" rx="1" ry="1" />
  <rect x="197" y="48" width="6" height="9" rx="1" ry="1" />
  <rect x="204" y="48" width="6" height="9" rx="1" ry="1" />
  <rect x="211" y="48" width="6" height="9" rx="1" ry="1" />
  <rect x="218" y="48" width="6" height="9" rx="1" ry="1" />
  <rect x="232" y="48" width="6" height="9" rx="1" ry="1" />
  <rect x="239" y="48" width="6" height="9" rx="1" ry="1" />
  <rect x="246" y="48" width="6" height="9" rx="1" ry="1" />
  <rect x="253" y="48" width="6" height="9" rx="1" ry="1" />
  <rect x="260" y="48" width="6" height="9" rx="1" ry="1" />
  <rect x="267" y="48" width="6" height="9" rx="1" ry="1" />
  <rect x="274" y="48" width="6" height="9" rx="1" ry="1" />
  <rect x="281" y="48" width="6" height="9" rx="1" ry="1" />
  <rect x="288" y="48" width="6" height="9" rx="1" ry="1" />
  <rect x="295" y="48" width="6" height="9" rx="1" ry="1" />
  <rect x="302" y="48" width="6" height="9" rx="1" ry="1" />
  <rect x="309" y="48" width="6" height="9" rx="1" ry="1" />
  <rect x="330" y="48" width="6" height="9" rx="1" ry="1" />
  <rect x="337" y="48" width="6" height="9" rx="1" ry="1" />
  <rect x="344" y="48" width="6" height="9" rx="1" ry="1" />
  <rect x="351" y="48" width="6" height="9" rx="1" ry="1" />
  <rect x="358" y="48" width="6" height="9" rx="1" ry="1" />
  <rect x="365" y="48" width="6" height="9" rx="1" ry="1" />
  <rect x="372" y="48" width="6" height="9" rx="1" ry="1" />
  <rect x="379" y="48" width="6" height="9" rx="1" ry="1" />
  <rect x="386" y="48" width="6" height="9" rx="1" ry="1" />
  <rect x="400" y="48" width="6" height="9" rx="1" ry="1" />
  <rect x="407" y="48" width="6" height="9" rx="1" ry="1" />
  <rect x="414" y="48" width="6" height="9" rx="1" ry="1" />
  <rect x="428" y="48" width="6" height="9" rx="1" ry="1" />
  <rect x="435" y="48" width="6" height="9" rx="1" ry="1" />
  <rect x="442" y="48" width="6" height="9" rx="1" ry="1" />
  <rect x="15" y="58" width="6" height="9" rx="1" ry="1" />
  <rect x="22" y="58" width="6" height="9" rx="1" ry="1" />
  <rect x="29" y="58" width="6" height="9" rx="1" ry="1" />
  <rect x="36" y="58" width="6" height="9" rx="1" ry="1" />
  <rect x="43" y="58" width="6" height="9" rx="1" ry="1" />
  <rect x="50" y="58" width="6" height="9" rx="1" ry="1" />
  <rect x="71" y="58" width="6" height="9" rx="1" ry="1" />
  <rect x="78" y="58" width="6" height="9" rx="1" ry="1" />
  <rect x="85" y="58" width="6" height="9" rx="1" ry="1" />
  <rect x="92" y="58" width="6" height="9" rx="1" ry="1" />
  <rect x="99" y="58" width="6" height="9" rx="1" ry="1" />
  <rect x="106" y="58" width="6" height="9" rx="1" ry="1" />
  <rect x="113" y="58" width="6" height="9" rx="1" ry="1" />
  <rect x="134" y="58" width="6" height="9" rx="1" ry="1" />
  <rect x="141" y="58" width="6" height="9" rx="1" ry="1" />
  <rect x="148" y="58" width="6" height="9" rx="1" ry="1" />
  <rect x="155" y="58" width="6" height="9" rx="1" ry="1" />
  <rect x="162" y="58" width="6" height="9" rx="1" ry="1" />
  <rect x="169" y="58" width="6" height="9" rx="1" ry="1" />
  <rect x="183" y="58" width="6" height="9" rx="1" ry="1" />
  <rect x="190" y="58" width="6" height="9" rx="1" ry="1" />
  <rect x="197" y="58" width="6" height="9" rx="1" ry="1" />
  <rect x="204" y="58" width="6" height="9" rx="1" ry="1" />
  <rect x="211" y="58" width="6" height="9" rx="1" ry="1" />
  <rect x="218" y="58" width="6" height="9" rx="1" ry="1" />
  <rect x="239" y="58" width="6" height="9" rx="1" ry="1" />
  <rect x="246" y="58" width="6" height="9" rx="1" ry="1" />
  <rect x="253" y="58" width="6" height="9" rx="1" ry="1" />
  <rect x="260" y="58" width="6" height="9" rx="1" ry="1" />
  <rect x="267" y="58" width="6" height="9" rx="1" ry="1" />
  <rect x="274" y="58" width="6" height="9" rx="1" ry="1" />
  <rect x="281" y="58" width="6" height="9" rx="1" ry="1" />
  <rect x="288" y="58" width="6" height="9" rx="1" ry="1" />
  <rect x="295" y="58" width="6" height="9" rx="1" ry="1" />
  <rect x="302" y="58" width="6" height="9" rx="1" ry="1" />
  <rect x="309" y="58" width="6" height="9" rx="1" ry="1" />
  <rect x="330" y="58" width="6" height="9" rx="1" ry="1" />
  <rect x="337" y="58" width="6" height="9" rx="1" ry="1" />
  <rect x="344" y="58" width="6" height="9" rx="1" ry="1" />
  <rect x="351" y="58" width="6" height="9" rx="1" ry="1" />
  <rect x="358" y="58" width="6" height="9" rx="1" ry="1" />
  <rect x="365" y="58" width="6" height="9" rx="1" ry="1" />
  <rect x="372" y="58" width="6" height="9" rx="1" ry="1" />
  <rect x="379" y="58" width="6" height="9" rx="1" ry="1" />
  <rect x="386" y="58" width="6" height="9" rx="1" ry="1" />
  <rect x="428" y="58" width="6" height="9" rx="1" ry="1" />
  <rect x="435" y="58" width="6" height="9" rx="1" ry="1" />
  <rect x="442" y="58" width="6" height="9" rx="1" ry="1" />
</svg>