<svg xmlns='http://www.w3.org/2000/svg' viewBox='0 0 520 70' fill='currentColor' aria-hidden='true' preserveAspectRatio='xMidYMid meet'>
  <rect x="48" y="8" width="4" height="8" rx="1" ry="1" />
  <rect x="56" y="8" width="4" height="8" rx="1" ry="1" />
  <rect x="64" y="8" width="4" height="8" rx="1" ry="1" />
  <rect x="72" y="8" width="4" height="8" rx="1" ry="1" />
  <rect x="80" y="8" width="4" height="8" rx="1" ry="1" />
  <rect x="88" y="8" width="4" height="8" rx="1" ry="1" />
  <rect x="120" y="8" width="4" height="8" rx="1" ry="1" />
  <rect x="128" y="8" width="4" height="8" rx="1" ry="1" />
  <rect x="136" y="8" width="4" height="8" rx="1" ry="1" />
  <rect x="184" y="8" width="4" height="8" rx="1" ry="1" />
  <rect x="192" y="8" width="4" height="8" rx="1" ry="1" />
  <rect x="200" y="8" width="4" height="8" rx="1" ry="1" />
  <rect x="208" y="8" width="4" height="8" rx="1" ry="1" />
  <rect x="216" y="8" width="4" height="8" rx="1" ry="1" />
  <rect x="224" y="8" width="4" height="8" rx="1" ry="1" />
  <rect x="232" y="8" width="4" height="8" rx="1" ry="1" />
  <rect x="240" y="8" width="4" height="8" rx="1" ry="1" />
  <rect x="248" y="8" width="4" height="8" rx="1" ry="1" />
  <rect x="256" y="8" width="4" height="8" rx="1" ry="1" />
  <rect x="288" y="8" width="4" height="8" rx="1" ry="1" />
  <rect x="296" y="8" width="4" height="8" rx="1" ry="1" />
  <rect x="304" y="8" width="4" height="8" rx="1" ry="1" />
  <rect x="336" y="8" width="4" height="8" rx="1" ry="1" />
  <rect x="344" y="8" width="4" height="8" rx="1" ry="1" />
  <rect x="352" y="8" width="4" height="8" rx="1" ry="1" />
  <rect x="376" y="8" width="4" height="8" rx="1" ry="1" />
  <rect x="384" y="8" width="4" height="8" rx="1" ry="1" />
  <rect x="392" y="8" width="4" height="8" rx="1" ry="1" />
  <rect x="400" y="8" width="4" height="8" rx="1" ry="1" />
  <rect x="408" y="8" width="4" height="8" rx="1" ry="1" />
  <rect x="416" y="8" width="4" height="8" rx="1" ry="1" />
  <rect x="424" y="8" width="4" height="8" rx="1" ry="1" />
  <rect x="432" y="8" width="4" height="8" rx="1" ry="1" />
  <rect x="440" y="8" width="4" height="8" rx="1" ry="1" />
  <rect x="448" y="8" width="4" height="8" rx="1" ry="1" />
  <rect x="480" y="8" width="4" height="8" rx="1" ry="1" />
  <rect x="488" y="8" width="4" height="8" rx="1" ry="1" />
  <rect x="496" y="8" width="4" height="8" rx="1" ry="1" />
  <rect x="504" y="8" width="4" height="8" rx="1" ry="1" />
  <rect x="48" y="17" width="4" height="8" rx="1" ry="1" />
  <rect x="56" y="17" width="4" height="8" rx="1" ry="1" />
  <rect x="64" y="17" width="4" height="8" rx="1" ry="1" />
  <rect x="72" y="17" width="4" height="8" rx="1" ry="1" />
  <rect x="80" y="17" width="4" height="8" rx="1" ry="1" />
  <rect x="88" y="17" width="4" height="8" rx="1" ry="1" />
  <rect x="120" y="17" width="4" height="8" rx="1" ry="1" />
  <rect x="128" y="17" width="4" height="8" rx="1" ry="1" />
  <rect x="136" y="17" width="4" height="8" rx="1" ry="1" />
  <rect x="184" y="17" width="4" height="8" rx="1" ry="1" />
  <rect x="192" y="17" width="4" height="8" rx="1" ry="1" />
  <rect x="200" y="17" width="4" height="8" rx="1" ry="1" />
  <rect x="208" y="17" width="4" height="8" rx="1" ry="1" />
  <rect x="216" y="17" width="4" height="8" rx="1" ry="1" />
  <rect x="224" y="17" width="4" height="8" rx="1" ry="1" />
  <rect x="232" y="17" width="4" height="8" rx="1" ry="1" />
  <rect x="240" y="17" width="4" height="8" rx="1" ry="1" />
  <rect x="248" y="17" width="4" height="8" rx="1" ry="1" />
  <rect x="256" y="17" width="4" height="8" rx="1" ry="1" />
  <rect x="264" y="17" width="4" height="8" rx="1" ry="1" />
  <rect x="288" y="17" width="4" height="8" rx="1" ry="1" />
  <rect x="296" y="17" width="4" height="8" rx="1" ry="1" />
  <rect x="304" y="17" width="4" height="8" rx="1" ry="1" />
  <rect x="336" y="17" width="4" height="8" rx="1" ry="1" />
  <rect x="344" y="17" width="4" height="8" rx="1" ry="1" />
  <rect x="352" y="17" width="4" height="8" rx="1" ry="1" />
  <rect x="368" y="17" width="4" height="8" rx="1" ry="1" />
  <rect x="376" y="17" width="4" height="8" rx="1" ry="1" />
  <rect x="384" y="17" width="4" height="8" rx="1" ry="1" />
  <rect x="392" y="17" width="4" height="8" rx="1" ry="1" />
  <rect x="400" y="17" width="4" height="8" rx="1" ry="1" />
  <rect x="408" y="17" width="4" height="8" rx="1" ry="1" />
  <rect x="416" y="17" width="4" height="8" rx="1" ry="1" />
  <rect x="424" y="17" width="4" height="8" rx="1" ry="1" />
  <rect x="432" y="17" width="4" height="8" rx="1" ry="1" />
  <rect x="440" y="17" width="4" height="8" rx="1" ry="1" />
  <rect x="448" y="17" width="4" height="8" rx="1" ry="1" />
  <rect x="456" y="17" width="4" height="8" rx="1" ry="1" />
  <rect x="472" y="17" width="4" height="8" rx="1" ry="1" />
  <rect x="480" y="17" width="4" height="8" rx="1" ry="1" />
  <rect x="488" y="17" width="4" height="8" rx="1" ry="1" />
  <rect x="496" y="17" width="4" height="8" rx="1" ry="1" />
  <rect x="504" y="17" width="4" height="8" rx="1" ry="1" />
  <rect x="48" y="26" width="4" height="8" rx="1" ry="1" />
  <rect x="56" y="26" width="4" height="8" rx="1" ry="1" />
  <rect x="64" y="26" width="4" height="8" rx="1" ry="1" />
  <rect x="72" y="26" width="4" height="8" rx="1" ry="1" />
  <rect x="80" y="26" width="4" height="8" rx="1" ry="1" />
  <rect x="88" y="26" width="4" height="8" rx="1" ry="1" />
  <rect x="120" y="26" width="4" height="8" rx="1" ry="1" />
  <rect x="128" y="26" width="4" height="8" rx="1" ry="1" />
  <rect x="136" y="26" width="4" height="8" rx="1" ry="1" />
  <rect x="184" y="26" width="4" height="8" rx="1" ry="1" />
  <rect x="192" y="26" width="4" height="8" rx="1" ry="1" />
  <rect x="200" y="26" width="4" height="8" rx="1" ry="1" />
  <rect x="208" y="26" width="4" height="8" rx="1" ry="1" />
  <rect x="216" y="26" width="4" height="8" rx="1" ry="1" />
  <rect x="224" y="26" width="4" height="8" rx="1" ry="1" />
  <rect x="232" y="26" width="4" height="8" rx="1" ry="1" />
  <rect x="240" y="26" width="4" height="8" rx="1" ry="1" />
  <rect x="248" y="26" width="4" height="8" rx="1" ry="1" />
  <rect x="256" y="26" width="4" height="8" rx="1" ry="1" />
  <rect x="264" y="26" width="4" height="8" rx="1" ry="1" />
  <rect x="272" y="26" width="4" height="8" rx="1" ry="1" />
  <rect x="288" y="26" width="4" height="8" rx="1" ry="1" />
  <rect x="296" y="26" width="4" height="8" rx="1" ry="1" />
  <rect x="304" y="26" width="4" height="8" rx="1" ry="1" />
  <rect x="336" y="26" width="4" height="8" rx="1" ry="1" />
  <rect x="344" y="26" width="4" height="8" rx="1" ry="1" />
  <rect x="352" y="26" width="4" height="8" rx="1" ry="1" />
  <rect x="360" y="26" width="4" height="8" rx="1" ry="1" />
  <rect x="368" y="26" width="4" height="8" rx="1" ry="1" />
  <rect x="376" y="26" width="4" height="8" rx="1" ry="1" />
  <rect x="384" y="26" width="4" height="8" rx="1" ry="1" />
  <rect x="400" y="26" width="4" height="8" rx="1" ry="1" />
  <rect x="408" y="26" width="4" height="8" rx="1" ry="1" />
  <rect x="416" y="26" width="4" height="8" rx="1" ry="1" />
  <rect x="424" y="26" width="4" height="8" rx="1" ry="1" />
  <rect x="432" y="26" width="4" height="8" rx="1" ry="1" />
  <rect x="440" y="26" width="4" height="8" rx="1" ry="1" />
  <rect x="448" y="26" width="4" height="8" rx="1" ry="1" />
  <rect x="456" y="26" width="4" height="8" rx="1" ry="1" />
  <rect x="464" y="26" width="4" height="8" rx="1" ry="1" />
  <rect x="472" y="26" width="4" height="8" rx="1" ry="1" />
  <rect x="480" y="26" width="4" height="8" rx="1" ry="1" />
  <rect x="488" y="26" width="4" height="8" rx="1" ry="1" />
  <rect x="496" y="26" width="4" height="8" rx="1" ry="1" />
  <rect x="504" y="26" width="4" height="8" rx="1" ry="1" />
  <rect x="8" y="35" width="4" height="8" rx="1" ry="1" />
  <rect x="16" y="35" width="4" height="8" rx="1" ry="1" />
  <rect x="48" y="35" width="4" height="8" rx="1" ry="1" />
  <rect x="56" y="35" width="4" height="8" rx="1" ry="1" />
  <rect x="64" y="35" width="4" height="8" rx="1" ry="1" />
  <rect x="72" y="35" width="4" height="8" rx="1" ry="1" />
  <rect x="80" y="35" width="4" height="8" rx="1" ry="1" />
  <rect x="88" y="35" width="4" height="8" rx="1" ry="1" />
  <rect x="120" y="35" width="4" height="8" rx="1" ry="1" />
  <rect x="128" y="35" width="4" height="8" rx="1" ry="1" />
  <rect x="136" y="35" width="4" height="8" rx="1" ry="1" />
  <rect x="144" y="35" width="4" height="8" rx="1" ry="1" />
  <rect x="152" y="35" width="4" height="8" rx="1" ry="1" />
  <rect x="184" y="35" width="4" height="8" rx="1" ry="1" />
  <rect x="192" y="35" width="4" height="8" rx="1" ry="1" />
  <rect x="200" y="35" width="4" height="8" rx="1" ry="1" />
  <rect x="208" y="35" width="4" height="8" rx="1" ry="1" />
  <rect x="216" y="35" width="4" height="8" rx="1" ry="1" />
  <rect x="224" y="35" width="4" height="8" rx="1" ry="1" />
  <rect x="232" y="35" width="4" height="8" rx="1" ry="1" />
  <rect x="240" y="35" width="4" height="8" rx="1" ry="1" />
  <rect x="248" y="35" width="4" height="8" rx="1" ry="1" />
  <rect x="256" y="35" width="4" height="8" rx="1" ry="1" />
  <rect x="264" y="35" width="4" height="8" rx="1" ry="1" />
  <rect x="272" y="35" width="4" height="8" rx="1" ry="1" />
  <rect x="280" y="35" width="4" height="8" rx="1" ry="1" />
  <rect x="288" y="35" width="4" height="8" rx="1" ry="1" />
  <rect x="296" y="35" width="4" height="8" rx="1" ry="1" />
  <rect x="304" y="35" width="4" height="8" rx="1" ry="1" />
  <rect x="336" y="35" width="4" height="8" rx="1" ry="1" />
  <rect x="344" y="35" width="4" height="8" rx="1" ry="1" />
  <rect x="352" y="35" width="4" height="8" rx="1" ry="1" />
  <rect x="360" y="35" width="4" height="8" rx="1" ry="1" />
  <rect x="368" y="35" width="4" height="8" rx="1" ry="1" />
  <rect x="376" y="35" width="4" height="8" rx="1" ry="1" />
  <rect x="384" y="35" width="4" height="8" rx="1" ry="1" />
  <rect x="400" y="35" width="4" height="8" rx="1" ry="1" />
  <rect x="408" y="35" width="4" height="8" rx="1" ry="1" />
  <rect x="416" y="35" width="4" height="8" rx="1" ry="1" />
  <rect x="424" y="35" width="4" height="8" rx="1" ry="1" />
  <rect x="432" y="35" width="4" height="8" rx="1" ry="1" />
  <rect x="440" y="35" width="4" height="8" rx="1" ry="1" />
  <rect x="448" y="35" width="4" height="8" rx="1" ry="1" />
  <rect x="456" y="35" width="4" height="8" rx="1" ry="1" />
  <rect x="464" y="35" width="4" height="8" rx="1" ry="1" />
  <rect x="472" y="35" width="4" height="8" rx="1" ry="1" />
  <rect x="480" y="35" width="4" height="8" rx="1" ry="1" />
  <rect x="488" y="35" width="4" height="8" rx="1" ry="1" />
  <rect x="496" y="35" width="4" height="8" rx="1" ry="1" />
  <rect x="504" y="35" width="4" height="8" rx="1" ry="1" />
  <rect x="8" y="44" width="4" height="8" rx="1" ry="1" />
  <rect x="16" y="44" width="4" height="8" rx="1" ry="1" />
  <rect x="24" y="44" width="4" height="8" rx="1" ry="1" />
  <rect x="32" y="44" width="4" height="8" rx="1" ry="1" />
  <rect x="40" y="44" width="4" height="8" rx="1" ry="1" />
  <rect x="48" y="44" width="4" height="8" rx="1" ry="1" />
  <rect x="56" y="44" width="4" height="8" rx="1" ry="1" />
  <rect x="64" y="44" width="4" height="8" rx="1" ry="1" />
  <rect x="72" y="44" width="4" height="8" rx="1" ry="1" />
  <rect x="80" y="44" width="4" height="8" rx="1" ry="1" />
  <rect x="88" y="44" width="4" height="8" rx="1" ry="1" />
  <rect x="96" y="44" width="4" height="8" rx="1" ry="1" />
  <rect x="104" y="44" width="4" height="8" rx="1" ry="1" />
  <rect x="112" y="44" width="4" height="8" rx="1" ry="1" />
  <rect x="120" y="44" width="4" height="8" rx="1" ry="1" />
  <rect x="128" y="44" width="4" height="8" rx="1" ry="1" />
  <rect x="136" y="44" width="4" height="8" rx="1" ry="1" />
  <rect x="144" y="44" width="4" height="8" rx="1" ry="1" />
  <rect x="152" y="44" width="4" height="8" rx="1" ry="1" />
  <rect x="160" y="44" width="4" height="8" rx="1" ry="1" />
  <rect x="168" y="44" width="4" height="8" rx="1" ry="1" />
  <rect x="176" y="44" width="4" height="8" rx="1" ry="1" />
  <rect x="184" y="44" width="4" height="8" rx="1" ry="1" />
  <rect x="192" y="44" width="4" height="8" rx="1" ry="1" />
  <rect x="200" y="44" width="4" height="8" rx="1" ry="1" />
  <rect x="208" y="44" width="4" height="8" rx="1" ry="1" />
  <rect x="216" y="44" width="4" height="8" rx="1" ry="1" />
  <rect x="224" y="44" width="4" height="8" rx="1" ry="1" />
  <rect x="232" y="44" width="4" height="8" rx="1" ry="1" />
  <rect x="240" y="44" width="4" height="8" rx="1" ry="1" />
  <rect x="248" y="44" width="4" height="8" rx="1" ry="1" />
  <rect x="264" y="44" width="4" height="8" rx="1" ry="1" />
  <rect x="272" y="44" width="4" height="8" rx="1" ry="1" />
  <rect x="280" y="44" width="4" height="8" rx="1" ry="1" />
  <rect x="288" y="44" width="4" height="8" rx="1" ry="1" />
  <rect x="296" y="44" width="4" height="8" rx="1" ry="1" />
  <rect x="304" y="44" width="4" height="8" rx="1" ry="1" />
  <rect x="312" y="44" width="4" height="8" rx="1" ry="1" />
  <rect x="320" y="44" width="4" height="8" rx="1" ry="1" />
  <rect x="328" y="44" width="4" height="8" rx="1" ry="1" />
  <rect x="336" y="44" width="4" height="8" rx="1" ry="1" />
  <rect x="344" y="44" width="4" height="8" rx="1" ry="1" />
  <rect x="352" y="44" width="4" height="8" rx="1" ry="1" />
  <rect x="376" y="44" width="4" height="8" rx="1" ry="1" />
  <rect x="384" y="44" width="4" height="8" rx="1" ry="1" />
  <rect x="392" y="44" width="4" height="8" rx="1" ry="1" />
  <rect x="400" y="44" width="4" height="8" rx="1" ry="1" />
  <rect x="408" y="44" width="4" height="8" rx="1" ry="1" />
  <rect x="416" y="44" width="4" height="8" rx="1" ry="1" />
  <rect x="424" y="44" width="4" height="8" rx="1" ry="1" />
  <rect x="432" y="44" width="4" height="8" rx="1" ry="1" />
  <rect x="440" y="44" width="4" height="8" rx="1" ry="1" />
  <rect x="456" y="44" width="4" height="8" rx="1" ry="1" />
  <rect x="464" y="44" width="4" height="8" rx="1" ry="1" />
  <rect x="472" y="44" width="4" height="8" rx="1" ry="1" />
  <rect x="488" y="44" width="4" height="8" rx="1" ry="1" />
  <rect x="496" y="44" width="4" height="8" rx="1" ry="1" />
  <rect x="504" y="44" width="4" height="8" rx="1" ry="1" />
  <rect x="16" y="53" width="4" height="8" rx="1" ry="1" />
  <rect x="24" y="53" width="4" height="8" rx="1" ry="1" />
  <rect x="32" y="53" width="4" height="8" rx="1" ry="1" />
  <rect x="40" y="53" width="4" height="8" rx="1" ry="1" />
  <rect x="48" y="53" width="4" height="8" rx="1" ry="1" />
  <rect x="56" y="53" width="4" height="8" rx="1" ry="1" />
  <rect x="80" y="53" width="4" height="8" rx="1" ry="1" />
  <rect x="88" y="53" width="4" height="8" rx="1" ry="1" />
  <rect x="96" y="53" width="4" height="8" rx="1" ry="1" />
  <rect x="104" y="53" width="4" height="8" rx="1" ry="1" />
  <rect x="112" y="53" width="4" height="8" rx="1" ry="1" />
  <rect x="120" y="53" width="4" height="8" rx="1" ry="1" />
  <rect x="128" y="53" width="4" height="8" rx="1" ry="1" />
  <rect x="152" y="53" width="4" height="8" rx="1" ry="1" />
  <rect x="160" y="53" width="4" height="8" rx="1" ry="1" />
  <rect x="168" y="53" width="4" height="8" rx="1" ry="1" />
  <rect x="176" y="53" width="4" height="8" rx="1" ry="1" />
  <rect x="184" y="53" width="4" height="8" rx="1" ry="1" />
  <rect x="192" y="53" width="4" height="8" rx="1" ry="1" />
  <rect x="208" y="53" width="4" height="8" rx="1" ry="1" />
  <rect x="216" y="53" width="4" height="8" rx="1" ry="1" />
  <rect x="224" y="53" width="4" height="8" rx="1" ry="1" />
  <rect x="232" y="53" width="4" height="8" rx="1" ry="1" />
  <rect x="240" y="53" width="4" height="8" rx="1" ry="1" />
  <rect x="248" y="53" width="4" height="8" rx="1" ry="1" />
  <rect x="272" y="53" width="4" height="8" rx="1" ry="1" />
  <rect x="280" y="53" width="4" height="8" rx="1" ry="1" />
  <rect x="288" y="53" width="4" height="8" rx="1" ry="1" />
  <rect x="296" y="53" width="4" height="8" rx="1" ry="1" />
  <rect x="304" y="53" width="4" height="8" rx="1" ry="1" />
  <rect x="312" y="53" width="4" height="8" rx="1" ry="1" />
  <rect x="320" y="53" width="4" height="8" rx="1" ry="1" />
  <rect x="328" y="53" width="4" height="8" rx="1" ry="1" />
  <rect x="336" y="53" width="4" height="8" rx="1" ry="1" />
  <rect x="344" y="53" width="4" height="8" rx="1" ry="1" />
  <rect x="352" y="53" width="4" height="8" rx="1" ry="1" />
  <rect x="376" y="53" width="4" height="8" rx="1" ry="1" />
  <rect x="384" y="53" width="4" height="8" rx="1" ry="1" />
  <rect x="392" y="53" width="4" height="8" rx="1" ry="1" />
  <rect x="400" y="53" width="4" height="8" rx="1" ry="1" />
  <rect x="408" y="53" width="4" height="8" rx="1" ry="1" />
  <rect x="416" y="53" width="4" height="8" rx="1" ry="1" />
  <rect x="424" y="53" width="4" height="8" rx="1" ry="1" />
  <rect x="432" y="53" width="4" height="8" rx="1" ry="1" />
  <rect x="440" y="53" width="4" height="8" rx="1" ry="1" />
  <rect x="488" y="53" width="4" height="8" rx="1" ry="1" />
  <rect x="496" y="53" width="4" height="8" rx="1" ry="1" />
  <rect x="504" y="53" width="4" height="8" rx="1" ry="1" />
</svg>